<?xml version="1.0" encoding="UTF-8" standalone="no"?>
<!-- Created with Inkscape (http://www.inkscape.org/) -->

<svg
   xmlns:dc="http://purl.org/dc/elements/1.1/"
   xmlns:cc="http://creativecommons.org/ns#"
   xmlns:rdf="http://www.w3.org/1999/02/22-rdf-syntax-ns#"
   xmlns:svg="http://www.w3.org/2000/svg"
   xmlns="http://www.w3.org/2000/svg"
   xmlns:sodipodi="http://sodipodi.sourceforge.net/DTD/sodipodi-0.dtd"
   xmlns:inkscape="http://www.inkscape.org/namespaces/inkscape"
   width="738.26129"
   height="666.19641"
   id="svg2"
   version="1.1"
   inkscape:version="0.48.1 "
   sodipodi:docname="feraliminal_pig_black_white_line_art_coloring_book_colouring.svg">
  <defs
     id="defs4">
    <inkscape:path-effect
       effect="spiro"
       id="path-effect3013"
       is_visible="true" />
    <inkscape:path-effect
       effect="spiro"
       id="path-effect3009"
       is_visible="true" />
    <inkscape:path-effect
       effect="spiro"
       id="path-effect3004"
       is_visible="true" />
    <inkscape:path-effect
       effect="spiro"
       id="path-effect2987"
       is_visible="true" />
    <filter
       inkscape:collect="always"
       id="filter3832"
       x="-0.62615126"
       width="2.2523024"
       y="-0.27464703"
       height="1.5492941"
       color-interpolation-filters="sRGB">
      <feGaussianBlur
         inkscape:collect="always"
         stdDeviation="49.207593"
         id="feGaussianBlur3834" />
    </filter>
  </defs>
  <sodipodi:namedview
     id="base"
     pagecolor="#ffffff"
     bordercolor="#666666"
     borderopacity="1.0"
     inkscape:pageopacity="0.0"
     inkscape:pageshadow="2"
     inkscape:zoom="0.7"
     inkscape:cx="427.97426"
     inkscape:cy="241.74591"
     inkscape:document-units="px"
     inkscape:current-layer="layer1"
     showgrid="false"
     fit-margin-top="0"
     fit-margin-left="0"
     fit-margin-right="0"
     fit-margin-bottom="0"
     inkscape:window-width="879"
     inkscape:window-height="731"
     inkscape:window-x="756"
     inkscape:window-y="36"
     inkscape:window-maximized="1" />
  <metadata
     id="metadata7">
    <rdf:RDF>
      <cc:Work
         rdf:about="">
        <dc:format>image/svg+xml</dc:format>
        <dc:type
           rdf:resource="http://purl.org/dc/dcmitype/StillImage" />
        <dc:title />
      </cc:Work>
    </rdf:RDF>
  </metadata>
  <g
     inkscape:label="Layer 1"
     inkscape:groupmode="layer"
     id="layer1"
     transform="translate(47.47321,-94.263959)">
    <path
       sodipodi:nodetypes="cscccsc"
       inkscape:connector-curvature="0"
       id="path3796"
       d="m 438.50116,458.70815 c 0,0 -18.54498,142.48047 20.39945,158.31164 38.94442,15.83116 25.96295,92.10859 25.96295,92.10859 l 28.91284,-21.65327 17.90196,17.39943 c 0,0 6.97828,-72.18669 16.03435,-111.05191 28.6693,-123.03777 7.62172,-173.97279 7.62172,-173.97279"
       style="fill:#000000;fill-opacity:1;stroke:#000000;stroke-width:5.54699993;stroke-miterlimit:4;stroke-opacity:1;stroke-dasharray:none;stroke-dashoffset:0" />
    <path
       style="fill:#000000;fill-opacity:1;stroke:#000000;stroke-width:6.80000019;stroke-miterlimit:4;stroke-opacity:1;stroke-dashoffset:0"
       d="m 106.42857,573.07647 -5.71428,137.14286 12.67857,-12.32143 8.75,12.32143 0,0 L 165,584.50504 106.42857,573.07647"
       id="path3007"
       inkscape:connector-curvature="0"
       sodipodi:nodetypes="ccccccc" />
    <path
       style="fill:#ffffff;fill-opacity:1;stroke:#000000;stroke-width:4.64638138000000020;stroke-linecap:butt;stroke-linejoin:miter;stroke-miterlimit:4;stroke-opacity:1"
       d="m 663.15507,331.90332 c -2.44562,-1.02349 0.10542,-3.69848 1.61769,-3.93764 4.09821,-0.64808 6.76278,3.86957 6.51189,7.33989 -0.4488,6.2076 -7.15738,9.5545 -12.98268,8.41069 -8.54885,-1.67858 -13.2177,-10.7637 -11.40605,-18.61744 2.41466,-10.46779 14.05198,-15.77605 24.34764,-12.88372 12.95604,3.63969 19.80644,17.72462 16.30023,29.89497 -4.24648,14.73993 -20.97123,22.05722 -35.7126,17.35678 -3.1323,-0.99875 -6.11018,-2.48841 -8.7973,-4.38493"
       id="path3801"
       inkscape:connector-curvature="0" />
    <path
       style="fill:#ffffff;stroke:#000000;stroke-width:4.52789450000000040;stroke-miterlimit:4;stroke-opacity:1;stroke-dashoffset:0"
       d="m 337.75,216.90625 c -46.29984,-0.20593 -92.66579,5.28762 -135.34375,16.4375 C 122.07126,254.33176 55.7036,295.13432 21.1875,344.78125 -13.32859,394.42818 -15.63086,452.36018 14.90625,503 40.896122,546.09912 90.448194,583.50616 153.0625,608.125 l 1.21875,119.9375 19.26005,-12.62352 12.17745,16.93602 26.1875,-105.90625 c 72.92303,17.33889 155.52794,18.83434 229.78125,3.71875 82.82413,-16.86032 154.3293,-54.16776 195.25,-101.90625 40.9206,-47.7385 50.81735,-105.39214 27.03125,-157.40625 2.18709,-5.93154 -15.29857,-26.09992 -19.5,-32.34375 C 614.7579,299.33178 573.47747,296.92785 512.97628,275.3482 497.95943,269.99197 463.00081,247.48946 446.81696,243.63839 408.66693,234.5603 378.6028,217.08795 337.75,216.90625 z"
       id="path2989"
       inkscape:connector-curvature="0"
       sodipodi:nodetypes="sssscccccssccsss" />
    <path
       transform="matrix(0.48505092,0,0,0.66341964,256.50719,165.75496)"
       d="m -281.42857,289.50504 c 0,37.08197 -43.81213,67.14286 -97.85714,67.14286 -54.045,0 -97.85714,-30.06089 -97.85714,-67.14286 0,-37.08198 43.81214,-67.14287 97.85714,-67.14287 54.04501,0 97.85714,30.06089 97.85714,67.14287 z"
       sodipodi:ry="67.14286"
       sodipodi:rx="97.85714"
       sodipodi:cy="289.50504"
       sodipodi:cx="-379.28571"
       id="path2994"
       style="fill:#ffffff;fill-opacity:1;stroke:#000000;stroke-width:24.70000076;stroke-miterlimit:4;stroke-opacity:1;stroke-dasharray:none;stroke-dashoffset:0"
       sodipodi:type="arc" />
    <path
       sodipodi:type="arc"
       style="fill:#ffffff;fill-opacity:1;stroke:#000000;stroke-width:24.70000076;stroke-miterlimit:4;stroke-opacity:1;stroke-dasharray:none;stroke-dashoffset:0"
       id="path2996"
       sodipodi:cx="-379.28571"
       sodipodi:cy="289.50504"
       sodipodi:rx="97.85714"
       sodipodi:ry="67.14286"
       d="m -281.42857,289.50504 c 0,37.08197 -43.81213,67.14286 -97.85714,67.14286 -54.045,0 -97.85714,-30.06089 -97.85714,-67.14286 0,-37.08198 43.81214,-67.14287 97.85714,-67.14287 54.04501,0 97.85714,30.06089 97.85714,67.14287 z"
       transform="matrix(0.5035232,0,0,0.53745586,337.39536,202.10825)" />
    <path
       style="fill:#ffffff;fill-opacity:1;stroke:#000000;stroke-width:6.02515220999999990;stroke-miterlimit:4;stroke-opacity:1;stroke-dasharray:none;opacity:1"
       d="m 220.32757,505.46037 c 0,0 -68.31058,77.14286 -121.851287,69.28572 C 44.935563,566.88894 -6.7589235,499.0318 -6.7589235,499.0318"
       id="path3842"
       inkscape:connector-curvature="0"
       sodipodi:nodetypes="csc" />
    <path
       sodipodi:type="arc"
       style="fill:#000000;fill-opacity:1;stroke:#000000;stroke-width:5.30000019;stroke-miterlimit:4;stroke-opacity:1;stroke-dasharray:none;stroke-dashoffset:0"
       id="path3854"
       sodipodi:cx="-643.46716"
       sodipodi:cy="201.52625"
       sodipodi:rx="49.497475"
       sodipodi:ry="24.243662"
       d="m -593.96969,201.52625 c 0,13.3894 -22.16077,24.24366 -49.49747,24.24366 -27.3367,0 -49.49748,-10.85426 -49.49748,-24.24366 0,-13.38941 22.16078,-24.24367 49.49748,-24.24367 27.3367,0 49.49747,10.85426 49.49747,24.24367 z"
       transform="matrix(0.85743398,0,0,1,669.93684,310.4366)" />
    <path
       transform="matrix(0.85743398,0,0,1,664.16999,313.26221)"
       d="m -593.96969,201.52625 c 0,13.3894 -22.16077,24.24366 -49.49747,24.24366 -27.3367,0 -49.49748,-10.85426 -49.49748,-24.24366 0,-0.53853 0.0366,-1.07691 0.10985,-1.61425 l 49.38763,1.61425 z"
       sodipodi:ry="24.243662"
       sodipodi:rx="49.497475"
       sodipodi:cy="201.52625"
       sodipodi:cx="-643.46716"
       id="path3856"
       style="fill:#ffffff;fill-opacity:1;stroke:#000000;stroke-width:5.30000019000000040;stroke-miterlimit:4;stroke-opacity:1;stroke-dasharray:none;stroke-dashoffset:0"
       sodipodi:type="arc"
       sodipodi:start="0"
       sodipodi:end="3.208226" />
    <path
       sodipodi:type="arc"
       style="fill:#ffffff;fill-opacity:1;stroke:#000000;stroke-width:12.10000038000000100;stroke-miterlimit:4;stroke-opacity:1;stroke-dasharray:none;stroke-dashoffset:0"
       id="path2992"
       sodipodi:cx="-379.28571"
       sodipodi:cy="289.50504"
       sodipodi:rx="97.85714"
       sodipodi:ry="67.14286"
       d="m -281.42857,289.50504 c 0,37.08197 -43.81213,67.14286 -97.85714,67.14286 -54.045,0 -97.85714,-30.06089 -97.85714,-67.14286 0,-37.08198 43.81214,-67.14287 97.85714,-67.14287 54.04501,0 97.85714,30.06089 97.85714,67.14287 z"
       transform="translate(435.71429,158.57143)" />
    <path
       sodipodi:type="arc"
       style="fill:#000000;fill-opacity:1;stroke:#000000;stroke-width:24.70000076;stroke-miterlimit:4;stroke-opacity:1;stroke-dasharray:none;stroke-dashoffset:0"
       id="path2998"
       sodipodi:cx="-312.85715"
       sodipodi:cy="403.07648"
       sodipodi:rx="31.428572"
       sodipodi:ry="32.142857"
       d="m -281.42858,403.07648 c 0,17.75201 -14.07105,32.14285 -31.42857,32.14285 -17.35752,0 -31.42857,-14.39084 -31.42857,-32.14285 0,-17.75201 14.07105,-32.14286 31.42857,-32.14286 17.35752,0 31.42857,14.39085 31.42857,32.14286 z"
       transform="matrix(0.53262555,0,0,0.38745608,175.20713,283.33062)" />
    <path
       transform="matrix(0.53262555,0,0,0.38745608,243.77856,290.47348)"
       d="m -281.42858,403.07648 c 0,17.75201 -14.07105,32.14285 -31.42857,32.14285 -17.35752,0 -31.42857,-14.39084 -31.42857,-32.14285 0,-17.75201 14.07105,-32.14286 31.42857,-32.14286 17.35752,0 31.42857,14.39085 31.42857,32.14286 z"
       sodipodi:ry="32.142857"
       sodipodi:rx="31.428572"
       sodipodi:cy="403.07648"
       sodipodi:cx="-312.85715"
       id="path3000"
       style="fill:#000000;fill-opacity:1;stroke:#000000;stroke-width:24.70000076;stroke-miterlimit:4;stroke-opacity:1;stroke-dasharray:none;stroke-dashoffset:0"
       sodipodi:type="arc" />
    <path
       style="fill:#ffffff;fill-opacity:1;stroke:#000000;stroke-width:5.54699993000000010;stroke-miterlimit:4;stroke-opacity:1;stroke-dasharray:none;stroke-dashoffset:0"
       d="m 509.92973,471.56529 c 0,0 -18.54498,142.48047 20.39945,158.31164 38.94442,15.83116 25.96295,92.10859 25.96295,92.10859 l 23.05808,-16.77066 23.75672,12.51682 c 0,0 6.97828,-72.18669 16.03435,-111.05191 C 647.81058,483.642 626.763,432.70698 626.763,432.70698"
       id="path3018"
       inkscape:connector-curvature="0"
       sodipodi:nodetypes="cscccsc" />
    <path
       style="fill:#ffffff;fill-opacity:1;stroke:#000000;stroke-width:5.54699993000000010;stroke-miterlimit:4;stroke-opacity:1;stroke-dasharray:none;stroke-dashoffset:0"
       d="m 200,286.6479 c 0,0 20,-111.42857 50,-94.28572 30,17.14286 78.57143,60 78.57143,60 l -87.14286,55.71429"
       id="path3788"
       inkscape:connector-curvature="0" />
    <path
       style="fill:#ffffff;fill-opacity:1;stroke:#000000;stroke-width:5.54699993000000010;stroke-miterlimit:4;stroke-opacity:1;stroke-dasharray:none;stroke-dashoffset:0"
       d="M 101.42857,278.07647 84.285714,196.6479 158.57143,205.21933 134.28571,276.6479"
       id="path3790"
       inkscape:connector-curvature="0" />
    <path
       sodipodi:type="arc"
       style="fill:#000000;fill-opacity:1;stroke:#000000;stroke-width:5.54699993;stroke-miterlimit:4;stroke-opacity:1;stroke-dasharray:none;stroke-dashoffset:0"
       id="path3792"
       sodipodi:cx="-340.71429"
       sodipodi:cy="285.21933"
       sodipodi:rx="16.428572"
       sodipodi:ry="15.714286"
       d="m -324.28572,285.21933 c 0,8.67876 -7.35532,15.71429 -16.42857,15.71429 -9.07325,0 -16.42858,-7.03553 -16.42858,-15.71429 0,-8.67876 7.35533,-15.71429 16.42858,-15.71429 9.07325,0 16.42857,7.03553 16.42857,15.71429 z"
       transform="translate(404.28571,61.428571)" />
    <path
       transform="translate(481.42857,68.571428)"
       d="m -324.28572,285.21933 c 0,8.67876 -7.35532,15.71429 -16.42857,15.71429 -9.07325,0 -16.42858,-7.03553 -16.42858,-15.71429 0,-8.67876 7.35533,-15.71429 16.42858,-15.71429 9.07325,0 16.42857,7.03553 16.42857,15.71429 z"
       sodipodi:ry="15.714286"
       sodipodi:rx="16.428572"
       sodipodi:cy="285.21933"
       sodipodi:cx="-340.71429"
       id="path3794"
       style="fill:#000000;fill-opacity:1;stroke:#000000;stroke-width:5.54699993;stroke-miterlimit:4;stroke-opacity:1;stroke-dasharray:none;stroke-dashoffset:0"
       sodipodi:type="arc" />
    <path
       style="opacity:0.64230772000000003;fill:#cccccc;fill-opacity:1;stroke:none"
       d="M -7.1428571,408.71387 C -0.28571428,404.03603 51.828571,377.13844 90.228571,404.03603 128.62857,430.93361 130,430.93361 130,430.93361 c 0,0 -68.571429,-44.43948 -137.1428571,-22.21974 z"
       id="path3836"
       inkscape:connector-curvature="0" />
  </g>
</svg>
